<svg width="55" height="55" viewBox="0 0 55 55" fill="none" xmlns="http://www.w3.org/2000/svg">
<path fill-rule="evenodd" clip-rule="evenodd" d="M0 27.6535C0 41.3256 9.92979 52.6946 22.9167 55V35.1381H16.0417V27.5H22.9167V21.3881C22.9167 14.5131 27.3465 10.6952 33.6119 10.6952C35.5965 10.6952 37.7369 11 39.7215 11.3048V18.3333H36.2083C32.8465 18.3333 32.0833 20.0131 32.0833 22.1535V27.5H39.4167L38.1952 35.1381H32.0833V55C45.0702 52.6946 55 41.3279 55 27.6535C55 12.4438 42.625 0 27.5 0C12.375 0 0 12.4438 0 27.6535Z" fill="black"/>
<g clip-path="url(#clip0_114_49)">
<path d="M51.9645 55.0002C53.6407 55.0002 55 53.6411 55 51.9647V3.03553C55 1.35889 53.6407 0 51.9645 0H3.03553C1.35867 0 0 1.35889 0 3.03553V51.9647C0 53.6411 1.35867 55.0002 3.03553 55.0002H51.9645Z" fill="#395185"/>
<path d="M37.9489 55.0002V33.7012H45.0983L46.1686 25.4007H37.9489V20.1009C37.9489 17.6977 38.6164 16.06 42.0628 16.06L46.4582 16.058V8.63409C45.6977 8.5329 43.0886 8.30688 40.0533 8.30688C33.7159 8.30688 29.3773 12.1751 29.3773 19.2792V25.4007H22.2097V33.7012H29.3773V55.0002H37.9489Z" fill="white"/>
</g>
<defs>
<clipPath id="clip0_114_49">
<rect width="55" height="55" fill="white"/>
</clipPath>
</defs>
</svg>
