<svg xmlns:xlink="http://www.w3.org/1999/xlink" width="50" height="50" viewBox="0 0 176 138" xmlns="http://www.w3.org/2000/svg">
        <path d="M119.25 48.25H56.75C48.462 48.25 40.5134 51.3778 34.6529 56.9453C28.7924 62.5128 25.5 70.0639 25.5 77.9375V83.875C25.5 87.7737 26.3083 91.6341 27.8788 95.236C29.4492 98.8378 31.7511 102.111 34.6529 104.867C40.5134 110.435 48.462 113.563 56.75 113.563H119.25C123.354 113.563 127.417 112.795 131.209 111.303C135 109.811 138.445 107.624 141.347 104.867C144.249 102.111 146.551 98.8378 148.121 95.236C149.692 91.6341 150.5 87.7737 150.5 83.875V77.9375C150.5 70.0639 147.208 62.5128 141.347 56.9453C135.487 51.3778 127.538 48.25 119.25 48.25ZM138 83.875C137.979 88.5932 135.997 93.1125 132.486 96.4488C128.974 99.7851 124.216 101.668 119.25 101.688H56.75C51.7835 101.668 47.0263 99.7851 43.5145 96.4488C40.0026 93.1125 38.0206 88.5932 38 83.875V77.9375C38.0206 73.2194 40.0026 68.7001 43.5145 65.3638C47.0263 62.0275 51.7835 60.1446 56.75 60.125H119.25C124.216 60.1446 128.974 62.0275 132.486 65.3638C135.997 68.7001 137.979 73.2194 138 77.9375V83.875ZM125.5 80.9063C125.5 82.6678 124.95 84.3897 123.92 85.8543C122.89 87.319 121.426 88.4605 119.713 89.1346C118 89.8087 116.115 89.9851 114.296 89.6414C112.477 89.2978 110.807 88.4495 109.496 87.204C108.185 85.9584 107.292 84.3715 106.93 82.6438C106.568 80.9162 106.754 79.1254 107.464 77.498C108.173 75.8706 109.375 74.4797 110.917 73.501C112.458 72.5224 114.271 72 116.125 72C118.611 72 120.996 72.9384 122.754 74.6086C124.512 76.2789 125.5 78.5442 125.5 80.9063ZM69.25 80.9063C69.25 82.6678 68.7002 84.3897 67.67 85.8543C66.6399 87.319 65.1757 88.4605 63.4626 89.1346C61.7496 89.8087 59.8646 89.9851 58.046 89.6414C56.2274 89.2978 54.557 88.4495 53.2459 87.204C51.9347 85.9584 51.0419 84.3715 50.6801 82.6438C50.3184 80.9162 50.504 79.1254 51.2136 77.498C51.9232 75.8706 53.1248 74.4797 54.6665 73.501C56.2082 72.5224 58.0208 72 59.875 72C62.3614 72 64.746 72.9384 66.5041 74.6086C68.2623 76.2789 69.25 78.5442 69.25 80.9063ZM150.5 0.750054C144.959 0.760098 139.577 2.51331 135.196 5.73586C130.814 8.9584 127.679 13.4688 126.281 18.5626H49.7187C48.2074 12.9547 44.5921 8.06423 39.5524 4.81038C34.5127 1.55652 28.3955 0.163278 22.3506 0.892504C16.3057 1.62173 10.7493 4.42321 6.72558 8.77043C2.70188 13.1177 0.487993 18.7113 0.499987 24.5001V83.875C0.520656 98.0415 6.45361 111.622 16.9981 121.639C27.5425 131.657 41.8379 137.293 56.75 137.313H119.25C134.162 137.293 148.457 131.657 159.002 121.639C169.546 111.622 175.479 98.0415 175.5 83.875V24.5001C175.479 18.2072 172.839 12.1776 168.155 7.72789C163.471 3.27814 157.124 0.769628 150.5 0.750054V0.750054ZM163 83.875C163 94.8981 158.391 105.47 150.186 113.264C141.981 121.059 130.853 125.438 119.25 125.438H56.75C45.1468 125.438 34.0188 121.059 25.8141 113.264C17.6093 105.47 13 94.8981 13 83.875V24.5001C13 21.3506 14.3169 18.3302 16.6612 16.1032C19.0054 13.8762 22.1848 12.6251 25.5 12.6251C28.8152 12.6251 31.9946 13.8762 34.3388 16.1032C36.683 18.3302 38 21.3506 38 24.5001C38 26.0748 38.6585 27.585 39.8306 28.6985C41.0027 29.812 42.5924 30.4376 44.25 30.4376H131.75C133.408 30.4376 134.997 29.812 136.169 28.6985C137.342 27.585 138 26.0748 138 24.5001C138 21.3506 139.317 18.3302 141.661 16.1032C144.005 13.8762 147.185 12.6251 150.5 12.6251C153.815 12.6251 156.995 13.8762 159.339 16.1032C161.683 18.3302 163 21.3506 163 24.5001V83.875Z" fill="white"></path>
      </svg>