<svg width="55" height="55" viewBox="0 0 55 55" fill="none" xmlns="http://www.w3.org/2000/svg">
<path d="M49.9709 23.0118H48.125V22.9167H27.5V32.0834H40.4514C38.5619 37.4195 33.4847 41.25 27.5 41.25C19.9066 41.25 13.75 35.0935 13.75 27.5C13.75 19.9066 19.9066 13.75 27.5 13.75C31.0051 13.75 34.194 15.0723 36.622 17.2322L43.104 10.7502C39.0111 6.93577 33.5363 4.58337 27.5 4.58337C14.8443 4.58337 4.58334 14.8443 4.58334 27.5C4.58334 40.1558 14.8443 50.4167 27.5 50.4167C40.1557 50.4167 50.4167 40.1558 50.4167 27.5C50.4167 25.9635 50.2585 24.4636 49.9709 23.0118Z" fill="#FFC107"/>
<path d="M7.22562 16.8335L14.7549 22.3552C16.7922 17.3113 21.7261 13.75 27.5 13.75C31.0051 13.75 34.194 15.0723 36.622 17.2322L43.104 10.7502C39.011 6.93577 33.5362 4.58337 27.5 4.58337C18.6977 4.58337 11.0642 9.55285 7.22562 16.8335Z" fill="#FF3D00"/>
<path d="M27.5 50.4167C33.4194 50.4167 38.7979 48.1514 42.8645 44.4676L35.7718 38.4657C33.3937 40.2743 30.4877 41.2524 27.5 41.2501C21.5394 41.2501 16.4782 37.4493 14.5716 32.1453L7.09845 37.9031C10.8912 45.3246 18.5934 50.4167 27.5 50.4167Z" fill="#4CAF50"/>
<path d="M49.9709 23.0117H48.125V22.9166H27.5V32.0833H40.4514C39.5475 34.6229 37.9195 36.8421 35.7683 38.4667L35.7718 38.4644L42.8645 44.4663C42.3626 44.9224 50.4167 38.9583 50.4167 27.5C50.4167 25.9634 50.2585 24.4635 49.9709 23.0117Z" fill="#1976D2"/>
</svg>
