<svg width="55" height="55" viewBox="0 0 55 55" fill="none" xmlns="http://www.w3.org/2000/svg">
<path d="M46.8626 46.8633H38.7133V34.101C38.7133 31.0577 38.659 27.14 34.4749 27.14C30.2305 27.14 29.581 30.4559 29.581 33.8795V46.8625H21.432V20.618H29.2551V24.2046H29.3646C30.1475 22.866 31.2789 21.7647 32.6382 21.0181C33.9975 20.2715 35.5338 19.9076 37.0835 19.9651C45.3432 19.9651 46.866 25.3981 46.866 32.466L46.8626 46.8633ZM12.2366 17.0308C9.62479 17.0312 7.50707 14.9142 7.50664 12.3023C7.50621 9.69045 9.62307 7.57273 12.2349 7.5723C14.8468 7.57166 16.9645 9.68873 16.9649 12.3006C16.9651 13.5548 16.4671 14.7578 15.5804 15.6449C14.6937 16.532 13.4909 17.0305 12.2366 17.0308ZM16.3114 46.8636H8.15353V20.618H16.3112V46.8633L16.3114 46.8636ZM50.9253 0.00400294H4.05861C1.84357 -0.0209189 0.0270703 1.75347 0 3.96851V51.0307C0.0262109 53.2468 1.8425 55.0229 4.0584 54.9997H50.9253C53.1459 55.0272 54.9693 53.2511 55 51.0307V3.96486C54.9684 1.74553 53.1448 -0.0286533 50.9253 0.000350602" fill="#0A66C2"/>
</svg>
